<?xml version="1.0" encoding="UTF-8"?>
<svg id="Livello_1" data-name="Livello 1" xmlns="http://www.w3.org/2000/svg" viewBox="0 0 63 9.29">
  <path d="M9.29,4.65c0,2.57-2.08,4.65-4.65,4.65H0v-5.04h.78v4.26h3.87c2.13,0,3.87-1.73,3.87-3.87S6.78.78,4.65.78H0v-.78h4.65c2.57,0,4.65,2.08,4.65,4.65Z"/>
  <path d="M20.12,0h.78v4.65c0,2.57-2.08,4.65-4.65,4.65s-4.65-2.08-4.65-4.65V0h.78v4.65c0,2.13,1.73,3.87,3.87,3.87s3.87-1.73,3.87-3.87V0Z"/>
  <path d="M32.52,4.65v4.65h-.78v-4.65c0-2.13-1.73-3.87-3.87-3.87s-3.87,1.73-3.87,3.87v4.65h-.78v-4.65c0-2.57,2.08-4.65,4.65-4.65s4.65,2.08,4.65,4.65Z"/>
  <path d="M39.48,0h4.65v.78h-4.65c-2,0-3.65,1.53-3.85,3.48h8.49v.78h-8.49c.2,1.95,1.85,3.48,3.85,3.48h4.65v.78h-4.65c-2.57,0-4.65-2.08-4.65-4.65s2.08-4.65,4.65-4.65Z"/>
  <path d="M54.79.7v.69l-5.31,7.52h-.84l5.31-7.52h-5.31v-.69h6.15Z"/>
  <path d="M63,3.77h0v2.06c0,1.7-1.38,3.08-3.08,3.08s-3.08-1.38-3.08-3.08v-2.05c0-1.7,1.38-3.08,3.08-3.08,0,0,0,0,0,0,.96,0,1.82.44,2.39,1.14.43.53.69,1.2.69,1.94ZM62.31,3.77c0-1.32-1.07-2.39-2.39-2.39s-2.39,1.07-2.39,2.39v2.05c0,1.32,1.07,2.39,2.39,2.39s2.39-1.07,2.39-2.39v-2.05Z"/>
</svg>